<svg class="" id="mg-cornerlogo" style="width:110px;height:auto;" viewBox="0 0 2252 877" version="1.1" xmlns="http://www.w3.org/2000/svg" xmlns:xlink="http://www.w3.org/1999/xlink" width="2252"  height="877" >
                        <title>Massengeschmack.TV</title>
                        <desc></desc>
                        <g id="" stroke="none" stroke-width="1" fill="none" fill-rule="evenodd">
                            <polygon class="char" id="M" stroke="#F8F9FA" fill="#F8F9FA" points="1 876 1 1 244 1 529 467 530 467 807 1 1050 1 1052 876 783 876 781 478 591 797 460 797 270 478 270 876"></polygon>
                            <path class="char" d="M1760,322 C1701.31273,256.967248 1636.31273,226.633915 1565,231 C1516,234 1451,244 1406,311 C1392.37536,331.285576 1353.59612,397.50715 1377,500 C1387.51125,546.032017 1410.90222,578.706476 1434,600 C1474.62783,637.454228 1520.96108,642.812284 1542,646 C1547.93014,646.898507 1575,649 1612,644 C1623.67468,642.422341 1643.67468,636.755674 1672,627 L1672,417 L1916,417 L1916,769 C1802,841 1679.66667,876 1549,874 C1418.33333,872 1314,837 1236,769 C1142,688.333333 1092.33333,582.333333 1087,451 C1081.66667,319.666667 1131.33333,206 1236,110 C1325.33333,38.6666667 1435,3 1565,3 C1695,3 1802.33333,38.6666667 1887,110 C1897.9165,119.424358 1907.58317,128.424358 1916,137 C1924.41683,145.575642 1932.41683,154.575642 1940,164 L1760,322 Z" id="G" stroke="#F8F9FA" fill="#F8F9FA"></path>
                            <circle class="char" id="dot" stroke="#F8F9FA" fill="#F8F9FA" cx="2112" cy="740" r="135"></circle>
                            <polygon class="char" id="tv" stroke="#F8F9FA" fill="#F8F9FA" points="2182 9 2182 86 1986 86 1986 175 2182 175 2182 276 1986 359 1986 447 2251 559 2251 472 2097 407 2251 343 2251 9"></polygon>
                        </g>
                    </svg>